<?xml version="1.0" encoding="utf-8"?>
<!-- Generator: Adobe Illustrator 16.0.0, SVG Export Plug-In . SVG Version: 6.00 Build 0)  -->
<!DOCTYPE svg PUBLIC "-//W3C//DTD SVG 1.1//EN" "http://www.w3.org/Graphics/SVG/1.1/DTD/svg11.dtd">
<svg version="1.1" id="Layer_1" xmlns="http://www.w3.org/2000/svg" xmlns:xlink="http://www.w3.org/1999/xlink" x="0px" y="0px"
	 width="198px" height="99px" viewBox="0 0 198 99" enable-background="new 0 0 198 99" xml:space="preserve">
<rect fill="#3A3532" width="198" height="99.166"/>
<g>
	<path fill="#FFFFFF" d="M44.292,43.291c0.006-0.187,0.008-0.372,0.008-0.551c0-2.311-1.97-4.192-4.396-4.201
		c-0.058,0-0.11,0.003-0.162,0.006c-2.368,0.075-4.265,1.927-4.265,4.195c0,2.25,1.862,4.091,4.201,4.196l0.63-0.015
		C42.366,46.749,44.026,45.229,44.292,43.291z"/>
	<path fill="#FFFFFF" d="M65.713,46.972l-7.17-15.378c-0.438-0.935-1.225-1.66-2.198-2.011L40.407,23.78
		c-0.973-0.355-2.042-0.307-2.978,0.128L22.05,31.078c-0.934,0.438-1.659,1.228-2.012,2.198l-5.803,15.942
		c-0.355,0.971-0.307,2.041,0.129,2.976l7.17,15.378c0.438,0.936,1.227,1.659,2.199,2.011l15.943,5.804
		c0.431,0.156,0.879,0.234,1.328,0.234c0.563,0,1.128-0.12,1.645-0.363l15.378-7.171c0.938-0.437,1.66-1.227,2.016-2.197
		l5.799-15.942C66.199,48.978,66.152,47.907,65.713,46.972z M55.016,51.258l-7.763-0.193c0.942,1.395,1.438,3.002,1.438,4.689
		c0,4.729-3.951,8.575-8.804,8.575c-0.004,0-0.007,0-0.01,0c-0.001,0-0.002,0-0.002,0c-1.28,0-2.494-0.274-3.593-0.759
		c-3.063-1.344-5.204-4.338-5.204-7.816c0-1.078,0.209-2.135,0.613-3.137h0.017c0.217-0.54,0.494-1.063,0.825-1.553l0.223-0.365
		l-7.714-0.19l0.01-0.843l29.983-0.004L55.016,51.258z M25.052,48.143l-0.01-0.839l8.09-0.205c-0.887-1.295-1.357-2.791-1.357-4.359
		c0-4.358,3.637-7.903,8.112-7.903c0.005,0,0.009,0,0.019,0c0.004,0,0.01,0,0.02,0c4.467,0,8.106,3.545,8.106,7.903
		c0,1.433-0.396,2.802-1.134,4.016l8.118-0.206l0.02,1.597L25.052,48.143z"/>
	<path fill="#FFFFFF" d="M39.877,50.881l-0.083,0.002c-1.535,0.021-2.906,0.699-3.827,1.754h0.001
		c-0.075,0.082-0.141,0.17-0.206,0.254c-0.024,0.037-0.054,0.072-0.083,0.108c-0.048,0.066-0.089,0.136-0.137,0.207
		c-0.037,0.06-0.081,0.124-0.115,0.187c-0.033,0.055-0.064,0.112-0.092,0.167c-0.043,0.085-0.09,0.169-0.126,0.255
		c-0.021,0.043-0.039,0.088-0.059,0.131c-0.043,0.107-0.089,0.215-0.122,0.326c-0.012,0.029-0.018,0.055-0.03,0.081
		c-0.04,0.14-0.082,0.281-0.111,0.423c-0.001,0.004-0.002,0.008-0.002,0.008c-0.066,0.315-0.103,0.639-0.103,0.971
		c0,1.313,0.546,2.506,1.431,3.382c0.93,0.919,2.234,1.495,3.674,1.495c2.814,0,5.105-2.188,5.105-4.877
		c0-2.664-2.246-4.832-5.032-4.871L39.877,50.881z"/>
	<g>
		<path fill="#FFFFFF" d="M157.166,31.795c-0.242,0-0.367-0.119-0.367-0.352c0-0.232,0.125-0.35,0.367-0.35h0.777v-1.063
			c0-0.174-0.006-0.291-0.025-0.358c-0.02-0.07-0.092-0.123-0.217-0.163c-0.082-0.025-0.156-0.052-0.223-0.085s-0.1-0.091-0.1-0.174
			c0-0.17,0.127-0.257,0.381-0.257h0.643c0.322,0,0.486,0.151,0.486,0.449v1.652h1.201v-2.472h-2.924
			c-0.242,0-0.367-0.118-0.367-0.359c0-0.232,0.125-0.349,0.367-0.349h4.588c0.244,0,0.369,0.116,0.369,0.349
			c0,0.241-0.123,0.359-0.357,0.359h-0.711v2.472h0.822c0.234,0,0.354,0.117,0.354,0.35c0,0.233-0.121,0.352-0.365,0.352H157.166z
			 M163.91,36.473h-3.943c-0.398,0-0.598-0.213-0.598-0.643v-0.761c0-0.141-0.031-0.24-0.092-0.29
			c-0.059-0.05-0.135-0.1-0.223-0.137c-0.066-0.021-0.125-0.051-0.168-0.087c-0.049-0.041-0.076-0.101-0.076-0.186
			c0-0.163,0.096-0.246,0.293-0.246h3.871v-0.934h-3.572c-0.242,0-0.361-0.12-0.361-0.361c0-0.226,0.119-0.34,0.361-0.34h4.152
			c0.264,0,0.398,0.144,0.398,0.438v1.372c0,0.345-0.15,0.52-0.453,0.52h-3.166v0.71c0,0.164,0.082,0.247,0.252,0.247h3.334
			c0.232,0,0.359,0.112,0.359,0.339C164.279,36.353,164.152,36.473,163.91,36.473z M163.066,28.079c0-0.189-0.031-0.314-0.094-0.372
			c-0.066-0.059-0.166-0.1-0.307-0.133c-0.158-0.034-0.277-0.072-0.369-0.109c-0.088-0.039-0.131-0.104-0.131-0.196
			c0-0.175,0.127-0.262,0.391-0.262h1.01c0.311,0,0.469,0.136,0.469,0.409v1.852h1.385c0.236,0,0.355,0.124,0.355,0.373
			c0,0.238-0.119,0.357-0.355,0.357h-1.385v1.153c0,0.606-0.25,0.906-0.746,0.906h-0.223V28.079z"/>
		<path fill="#FFFFFF" d="M171.041,28.448c0.322,0,0.48,0.168,0.48,0.498v2.812c0,0.369-0.053,0.652-0.166,0.847
			c0.217,0.016,0.32,0.132,0.32,0.351c0,0.241-0.121,0.363-0.365,0.363h-3.143c-0.117,0.182-0.293,0.271-0.52,0.271h-0.227v-3.932
			c0-0.249-0.006-0.403-0.023-0.473c-0.021-0.066-0.092-0.125-0.219-0.172c-0.09-0.037-0.166-0.077-0.234-0.12
			c-0.066-0.042-0.102-0.101-0.102-0.182c0-0.174,0.127-0.263,0.367-0.263H171.041z M168.369,32.604h2.197v-3.445h-2.184v3.171
			C168.383,32.43,168.373,32.521,168.369,32.604z M173.314,28.079c0-0.189-0.033-0.314-0.092-0.372
			c-0.059-0.059-0.164-0.1-0.309-0.133c-0.15-0.034-0.271-0.072-0.363-0.109c-0.094-0.039-0.137-0.104-0.137-0.196
			c0-0.175,0.123-0.262,0.387-0.262h0.998c0.32,0,0.479,0.136,0.479,0.409v8.144c0,0.611-0.244,0.914-0.73,0.914h-0.232V28.079z"/>
		<path fill="#FFFFFF" d="M175.779,30.311c0-0.572,0.209-1.06,0.623-1.467c0.416-0.406,0.934-0.609,1.566-0.609
			c0.627,0,1.156,0.202,1.574,0.605c0.297,0.285,0.488,0.613,0.568,0.984h0.91v-0.995c0-0.182-0.023-0.3-0.076-0.355
			c-0.053-0.052-0.15-0.101-0.303-0.14c-0.162-0.039-0.283-0.078-0.363-0.12c-0.082-0.041-0.125-0.107-0.125-0.194
			c0-0.163,0.133-0.24,0.391-0.24h0.955c0.316,0,0.479,0.144,0.479,0.438v5.001c0,0.613-0.246,0.917-0.744,0.917h-0.213v-3.6h-0.867
			c-0.049,0.475-0.252,0.887-0.611,1.239c-0.418,0.409-0.947,0.613-1.574,0.613c-0.633,0-1.15-0.205-1.566-0.609
			C175.988,31.372,175.779,30.881,175.779,30.311z M176.734,30.311c0,0.401,0.125,0.73,0.371,0.98
			c0.25,0.251,0.539,0.375,0.863,0.375c0.326,0,0.611-0.124,0.865-0.375c0.256-0.25,0.377-0.579,0.377-0.98
			c0-0.408-0.121-0.738-0.377-0.989c-0.254-0.253-0.539-0.376-0.865-0.376c-0.324,0-0.613,0.124-0.863,0.376
			C176.859,29.573,176.734,29.903,176.734,30.311z M183.623,36.473h-4.121c-0.707,0-1.057-0.288-1.057-0.866v-1.071
			c0-0.182-0.033-0.305-0.094-0.363c-0.063-0.058-0.17-0.102-0.318-0.134c-0.152-0.048-0.26-0.086-0.316-0.123
			c-0.053-0.033-0.084-0.1-0.084-0.189c0-0.176,0.115-0.266,0.348-0.266h0.963c0.314,0,0.467,0.156,0.467,0.46v1.626
			c0,0.138,0.072,0.207,0.213,0.207h4.004c0.25,0,0.373,0.12,0.373,0.36C184,36.354,183.873,36.473,183.623,36.473z M182.299,27.007
			h0.965c0.334,0,0.504,0.14,0.504,0.419v6.007c0,0.611-0.256,0.916-0.756,0.916h-0.219V28.07c0-0.189-0.029-0.313-0.08-0.373
			c-0.045-0.057-0.15-0.102-0.314-0.139c-0.164-0.027-0.285-0.061-0.369-0.101c-0.086-0.034-0.131-0.096-0.131-0.189
			C181.898,27.094,182.031,27.007,182.299,27.007z"/>
	</g>
	<polygon fill="#FFFFFF" points="112.396,40.496 108.92,40.496 108.92,59.412 121.42,59.412 121.42,56.828 112.396,56.828 	"/>
	<rect x="146.016" y="40.496" fill="#FFFFFF" width="3.477" height="18.917"/>
	<path fill="#FFFFFF" d="M142.139,40.496h-3.998c0,0-4.197,12.907-4.793,14.85c-0.605-2.003-4.844-14.85-4.844-14.85h-3.996v18.917
		h3.473V48.143c0.336,0.94,3.799,11.161,3.799,11.161h3.066c0,0,3.393-10.048,3.855-11.263v11.372h3.479V40.496H142.139z"/>
	<path fill="#FFFFFF" d="M183.996,40.496h-3.475v12.653c-2.193-3.723-6.791-12.653-6.791-12.653h-3.574v18.917h3.475V46.331
		c1.473,2.574,6.891,13.082,6.891,13.082h3.475H184V40.496H183.996z"/>
	<path fill="#FFFFFF" d="M87.853,41.959c-1.374-1.063-3.461-1.6-6.209-1.6c-1.891,0-4.498,0.121-6.144,0.356l-0.296,0.043v18.654
		h3.449V42.963c0.521-0.083,2.144-0.131,3.054-0.131c1.746,0,4.681,0.43,4.681,3.315c0,2.206-1.712,3.498-4.699,3.581v2.502
		c2.688-0.062,4.951-0.801,6.397-2.096c1.16-1.021,1.742-2.41,1.742-4.124C89.828,44.374,89.129,42.933,87.853,41.959z"/>
	<path fill="#FFFFFF" d="M93.016,45.952c-0.764,5.487-2.705,9.089-5.33,12.5l2.492,1.917c2.645-3.437,5.129-7.588,5.998-14.417
		H93.016z"/>
	<path fill="#FFFFFF" d="M107.295,58.452c-3.404-4.427-5.674-9.176-5.674-17.957h-8.34v2.583h5.266
		c0.469,8.583,3.262,13.396,6.256,17.291L107.295,58.452z"/>
	<g>
		<path fill="#FFFFFF" d="M164.4,59.412h3.354l-6.455-18.917h-3.24l-6.453,18.917h3.271c0.426-1.334,4.377-13.872,4.566-14.598
			l0.158-0.604l0.154,0.604C159.943,45.523,163.973,58.082,164.4,59.412z"/>
	</g>
</g>
</svg>
